PathFileType	4	(X/Y/Z)	C:\Users\Biomechanik\SynologyDrive\AlexP\Athlete_03\Athlete_3_25_03_31\Deadlift_35kg_02\marker_experimental.trc
DataRate	CameraRate	NumFrames	NumMarkers	Units	OrigDataRate	OrigDataStartFrame	OrigNumFrames
200.000000	200.000000	4	55	mm	200.000000	1735	1983
Frame#	Time	BL			BR			GLAB			RFHD			LFHD			C7			T6			SPINMOL			SPINM2			SPINM3			T12			BELTOL			BELT2			BELT3			SACROL			SACR2			SACR3			LTHOL			LTH2			LTH3			LSHAOL			LSHA2			LSHA3			LHEE			LTOE			LM5			RTHOL			RTH2			RTH3			RSHAOL			RSHA2			RSHA3			RHEE			RTOE			RM5			STRN			XIPH			LACR			LUAOL			LUA2			LUA3			LLAOL			LLA2			LLA3			LWRR			LWRU			RACR			RUAOL			RUA2			RUA3			RLAOL			RLA2			RLA3			RWRR			RWRU			
		X1	Y1	Z1	X2	Y2	Z2	X3	Y3	Z3	X4	Y4	Z4	X5	Y5	Z5	X6	Y6	Z6	X7	Y7	Z7	X8	Y8	Z8	X9	Y9	Z9	X10	Y10	Z10	X11	Y11	Z11	X12	Y12	Z12	X13	Y13	Z13	X14	Y14	Z14	X15	Y15	Z15	X16	Y16	Z16	X17	Y17	Z17	X18	Y18	Z18	X19	Y19	Z19	X20	Y20	Z20	X21	Y21	Z21	X22	Y22	Z22	X23	Y23	Z23	X24	Y24	Z24	X25	Y25	Z25	X26	Y26	Z26	X27	Y27	Z27	X28	Y28	Z28	X29	Y29	Z29	X30	Y30	Z30	X31	Y31	Z31	X32	Y32	Z32	X33	Y33	Z33	X34	Y34	Z34	X35	Y35	Z35	X36	Y36	Z36	X37	Y37	Z37	X38	Y38	Z38	X39	Y39	Z39	X40	Y40	Z40	X41	Y41	Z41	X42	Y42	Z42	X43	Y43	Z43	X44	Y44	Z44	X45	Y45	Z45	X46	Y46	Z46	X47	Y47	Z47	X48	Y48	Z48	X49	Y49	Z49	X50	Y50	Z50	X51	Y51	Z51	X52	Y52	Z52	X53	Y53	Z53	X54	Y54	Z54	X55	Y55	Z55	

1736	8.675000000000001	2225.408447265625	220.7971496582033	370.9057617187504	204.9343261718749	221.8263702392578	323.0810241699219	1187.017578125	951.2835083007814	646.2127685546877	1124.571044921875	1006.113403320313	644.3184814453127	1260.95703125	998.0385131835939	646.6316528320315	1198.563232421875	1043.245483398438	385.7622680664065	1203.6650390625	981.3068847656251	222.0238342285159	1225.595458984375	965.1989135742189	192.237258911133	1176.833618164062	960.4662475585939	182.8258514404299	1213.935791015625	926.1527709960939	139.7813873291018	1214.228759765625	882.3313598632814	97.79493713378929	1230.959838867188	879.2570190429689	59.29935455322288	1180.559448242188	874.6078491210939	57.78464126586936	1211.513427734375	836.1870117187501	12.78452777862571	1241.078002929688	736.9447021484376	-73.4865798950193	1189.760009765625	734.4904785156251	-71.22251892089822	1216.738525390625	679.5439453125001	-96.6658020019529	1422.330810546875	489.2108154296876	169.3990173339846	1398.7216796875	417.4952392578126	190.301452636719	1414.496948242188	455.8333129882814	219.6685028076174	1423.253540039062	282.3405761718751	280.358581542969	1411.102783203125	242.5713043212891	212.2221374511721	1411.833129882812	226.1830444335938	259.0618591308597	1305.227905273438	69.69614410400399	110.1153411865237	1307.533935546875	45.06858444213875	324.6483154296877	1411.514404296875	29.73381042480477	279.8927917480472	1010.45556640625	485.6975708007813	151.1988677978518	990.5528564453125	507.5767517089844	225.9243011474611	1011.722412109375	464.8334655761719	210.0218658447268	999.1350708007812	306.5355529785157	271.7598876953127	1007.085510253906	229.1020660400391	278.3000488281252	1013.034606933594	256.0361938476563	237.7489166259768	1126.017700195312	62.88126754760749	114.4162673950197	1105.728149414062	45.85430908203132	325.4500122070315	1006.604248046875	39.55487442016608	269.5872192382814	1199.868774414062	852.5726928710939	441.8846435546877	1205.943603515625	745.3762207031251	337.4940185546877	1364.17529296875	928.4005126953126	435.2052001953127	1451.8955078125	781.1799926757814	425.0099182128909	1477.134521484375	721.2877807617189	413.345153808594	1432.332641601562	719.8822021484376	436.1726379394534	1485.1318359375	517.2529907226564	410.6037597656253	1515.84033203125	464.6543273925782	359.7306823730472	1489.211547851562	456.1681518554689	401.482116699219	1490.568603515625	351.3517456054689	399.1787719726565	1421.136474609375	347.7580566406251	361.5650634765628	1040.917358398438	922.8538208007814	432.4276123046877	959.3514404296874	784.6655273437501	407.8314819335939	966.7276000976561	720.8502197265626	418.3369750976564	922.2694702148436	730.86865234375	392.9551391601564	917.5546874999999	508.8475646972657	376.2874450683595	930.8519897460936	442.3706970214844	418.3607788085939	915.3208618164061	446.1109924316407	371.4835510253908	921.7541503906249	358.7836914062501	392.2682495117189	991.7199707031249	338.7094421386719	349.008758544922	
1737	8.68	2225.352783203125	220.8022613525392	370.8593139648441	204.8659362792968	221.8327178955078	323.0741882324219	1186.937866210937	954.0942993164064	645.9345703125002	1124.530517578125	1008.930419921875	643.866394042969	1260.896606445312	1000.790222167969	646.2498779296877	1198.609375	1045.368896484375	385.2133483886721	1203.736450195312	982.9801635742189	221.6352386474612	1225.660522460938	966.8054809570314	191.903259277344	1176.899536132812	962.0687255859376	182.4949951171877	1213.995483398438	927.6367187500001	139.5157318115237	1214.257446289062	883.7044677734376	97.6505050659182	1231.01611328125	880.5162353515626	59.13185501098656	1180.596801757812	875.8715209960939	57.60868453979514	1211.546997070312	837.3864135742189	12.67742347717307	1241.050903320312	738.2426147460939	-73.27973937988259	1189.726440429688	735.7965698242189	-71.01390838623026	1216.688720703125	680.8344726562501	-96.43331909179665	1422.14013671875	490.0167236328126	169.3392639160159	1398.505493164062	418.2498474121095	190.0638732910159	1414.301513671875	456.5198974609376	219.5001983642581	1423.16552734375	282.5216369628907	280.1596679687503	1411.029907226562	242.6587982177735	212.0695800781253	1411.763793945312	226.3123931884766	258.9185791015628	1305.254760742188	69.67323303222665	110.0923919677737	1307.539184570312	45.07988357543953	324.6409912109377	1411.5263671875	29.67734146118173	279.9500427246097	1010.518859863281	486.5591430664063	151.1965179443361	990.6465454101562	508.2198486328126	225.9915771484377	1011.819519042969	465.5264282226563	209.9591979980471	999.2108764648438	306.6463012695313	271.6040649414064	1007.134643554688	229.2328338623047	278.210418701172	1013.079650878906	256.1156311035157	237.6189117431643	1125.976440429688	62.86240005493171	114.3918533325197	1105.723388671875	45.85150527954109	325.451110839844	1006.611328125	39.54693222045905	269.592498779297	1199.85009765625	854.8116455078126	441.7108154296877	1205.866943359375	747.3579711914064	337.631774902344	1364.192138671875	930.5993041992189	434.8940734863284	1451.774169921875	783.4155883789064	425.0352172851565	1477.017333984375	723.4952392578126	413.5839843750003	1432.189331054688	722.1358642578126	436.3046875000003	1484.931396484375	519.3786621093751	411.0224914550784	1515.712646484375	466.6987304687501	360.291687011719	1488.991333007812	458.2747497558595	401.989196777344	1490.284301757812	353.4156799316407	399.7749023437503	1420.774780273438	349.8988342285157	362.2113037109378	1040.905517578125	925.1416625976564	432.0895080566408	959.3108520507811	786.9350585937501	407.7276000976564	966.6776123046874	723.1292114257814	418.3240051269533	922.2070922851561	733.1174926757812	392.9474487304689	917.4552612304686	511.0284118652344	376.6609191894533	930.8242797851561	444.6573181152344	418.8593750000002	915.2438354492186	448.2840576171876	371.9712524414064	921.7271728515624	361.0084533691407	392.8967285156252	991.8461303710936	340.8149108886719	349.7339172363283	
1738	8.685	2225.29931640625	220.8084869384767	370.8120727539066	204.8034973144531	221.8365631103516	323.0675964355469	1186.858520507812	957.0133666992189	645.6550292968752	1124.490234375	1011.857421875	643.4022216796877	1260.835327148437	1003.651794433594	645.8597412109377	1198.657470703125	1047.570068359375	384.6529541015627	1203.813598632812	984.7191162109376	221.2428894042971	1225.731323242188	968.4778442382814	191.5677032470705	1176.96923828125	963.7359008789064	182.1634063720705	1214.0595703125	929.1821899414064	139.2519836425784	1214.290161132812	885.1378173828126	97.5107116699221	1231.07470703125	881.8345947265626	58.97424697875999	1180.638671875	877.1964721679689	57.4368247985842	1211.584716796875	838.6488037109376	12.57599258422874	1241.0263671875	739.6032714843751	-73.06127929687477	1189.695190429688	737.1652221679689	-70.79423522949197	1216.641723632812	682.1900024414064	-96.19136047363259	1421.948852539062	490.8694763183595	169.2677917480471	1398.286254882812	419.0447692871095	189.8088073730471	1414.106201171875	457.2437438964845	219.3164825439456	1423.071044921875	282.7107543945314	279.9500122070315	1410.952758789062	242.7523803710938	211.9052581787112	1411.686889648438	226.4490051269532	258.7656250000003	1305.282470703125	69.64917755126962	110.0682678222659	1307.545288085938	45.09154891967781	324.6333618164065	1411.536499023438	29.63173866271981	279.9965515136722	1010.582641601562	487.4654235839844	151.1817626953127	990.7406616210938	508.8980102539063	226.0483856201174	1011.917053222656	466.2572326660157	209.8811492919924	999.2904052734375	306.7636413574219	271.4319763183595	1007.194396972656	229.3623809814454	278.1112670898439	1013.126159667969	256.1998596191407	237.4749298095705	1125.93505859375	62.84328842163093	114.3662643432619	1105.718627929688	45.84863662719734	325.4518127441409	1006.619201660156	39.53876113891608	269.5978088378908	1199.834716796875	857.1335449218751	441.5378723144534	1205.791259765625	749.4164428710939	337.7800292968752	1364.211669921875	932.8823242187501	434.5820007324221	1451.66259765625	785.7318725585939	425.0525207519534	1476.901733398438	725.7785034179689	413.8087463378909	1432.0498046875	724.4663696289064	436.4267883300784	1484.734741210938	521.5883789062501	411.4349365234378	1515.578125	468.8240966796876	360.8412780761722	1488.773681640625	460.4655761718751	402.493103027344	1490.004760742188	355.566375732422	400.3720397949222	1420.41015625	352.1177978515626	362.8839416503909	1040.891723632812	927.5115966796876	431.7442932128908	959.2664184570311	789.2852172851564	407.5997619628908	966.6134033203124	725.4848022460939	418.2972106933595	922.1414184570311	735.4488525390625	392.911590576172	917.3487548828124	513.2957153320312	377.0129699707033	930.7680053710936	447.0333557128907	419.3487548828127	915.1583251953124	450.5435791015626	372.4416503906252	921.6800537109374	363.3203125000001	393.5164184570314	991.9962768554686	342.9860839843751	350.5046691894533	
1739	8.69	2225.248779296875	220.8159484863283	370.7640991210941	204.7480773925781	221.8376312255859	323.0612792968751	1186.779907226562	960.0390625000001	645.3736572265627	1124.450805664062	1014.892272949219	642.9260864257815	1260.773559570312	1006.621459960938	645.4607543945315	1198.70703125	1049.847534179688	384.081237792969	1203.895629882812	986.5228881835939	220.8467102050784	1225.806884765625	970.2149658203126	191.2304534912112	1177.042114257812	965.4670410156251	181.8306579589846	1214.127075195312	930.7884521484376	138.9902648925784	1214.326171875	886.6307983398439	97.37550354003929	1231.135131835938	883.2114868164064	58.82538604736351	1180.684936523438	878.5823364257814	57.26899337768577	1211.626098632812	839.9732666015626	12.47983264923118	1241.004638671875	741.0254516601564	-72.83148956298805	1189.666381835938	738.5952758789064	-70.56373596191385	1216.59814453125	683.6094970703126	-95.93994140624977	1421.757080078125	491.7688903808595	169.1852264404299	1398.064697265625	419.8789367675782	189.5369262695315	1413.91162109375	458.003875732422	219.1184387207034	1422.969604492188	282.9066772460939	279.730163574219	1410.871459960938	242.8520965576173	211.7292633056643	1411.602294921875	226.5930480957032	258.6028137207034	1305.311157226562	69.62400054931649	110.0431060791018	1307.55224609375	45.1039123535157	324.625427246094	1411.544799804688	29.59742927551278	280.0320434570315	1010.646789550781	488.4154357910157	151.1547088623049	990.8345947265625	509.6101989746094	226.0946350097658	1012.014709472656	467.0249938964844	209.7877044677736	999.3728637695312	306.8875427246094	271.2433471679689	1007.264831542969	229.4894104003907	278.0015563964845	1013.173950195312	256.2887573242188	237.3165740966799	1125.893676757812	62.82396316528327	114.3395614624026	1105.713745117188	45.84596252441413	325.452331542969	1006.627624511719	39.53033447265631	269.6032714843752	1199.822875976562	859.5372314453126	441.3659362792971	1205.717041015625	751.5506591796876	337.9386291503909	1364.23388671875	935.2479858398439	434.268737792969	1451.561889648438	788.1259765625001	425.0605163574222	1476.789428710938	728.1355590820314	414.0174560546878	1431.915405273438	726.8713378906251	436.5380859375003	1484.54345703125	523.8799438476564	411.8403320312503	1515.436889648438	471.0282287597657	361.3785095214847	1488.560180664062	462.738739013672	402.9930114746097	1489.73193359375	357.8020324707032	400.9697570800784	1420.044189453125	354.4125061035157	363.5833740234378	1040.876831054688	929.9615478515626	431.392059326172	959.2172851562499	791.7134399414064	407.4483337402345	966.5336303710936	727.9144897460939	418.2574157714845	922.0718383789061	737.8607177734375	392.8468322753908	917.2343749999999	515.6472778320312	377.3442993164064	930.6824951171874	449.4952087402344	419.8279724121095	915.0636596679686	452.8872680664063	372.894989013672	921.6115112304686	365.7167053222657	394.1273193359377	992.1679077148436	345.2242126464844	351.3204650878908	
